<?xml version="1.0" encoding="utf-8"?>
<!-- Generator: Adobe Illustrator 21.1.0, SVG Export Plug-In . SVG Version: 6.00 Build 0)  -->
<svg version="1.1" id="Layer_1" xmlns="http://www.w3.org/2000/svg" xmlns:xlink="http://www.w3.org/1999/xlink" x="0px" y="0px"
	 viewBox="0 0 500 214.8" style="enable-background:new 0 0 500 214.8;" xml:space="preserve">
<style type="text/css">
	.st0{fill:#FFFFFF;}
</style>
<g>
	<path class="st0" d="M454.7,62c13-2.3,25.5-4.5,38.5-6.8c-3.7,12.4-6.8,24.5-10.8,36.3c-2.7,7.9-6,15.9-10.3,23
		c-10.6,17.2-25.7,28.9-45.7,33.4c-3.3,0.8-6.9,1.4-10.2,1.1c-8.8-0.9-17.2,1.2-25.7,2.7c-24.7,4.4-49.5,8.9-74.2,13.5
		c-1.7,0.3-3.4,1-4.9,1.8c-13.4,7.4-27.3,10.2-42.1,5.1c-3.4-1.2-6.6-3.1-9.9-4.7c-19.3,19.5-41,27.8-67.5,12.6
		c-3.6,3.4-7.4,7.1-11.4,10.6c-7.5,6.7-16.3,10.6-26.2,7.7c-6.2-1.8-11.7-0.8-17.7,0.2c-19.3,3.4-38.6,7.2-58,9.8
		c-29.1,3.8-56.3-13.7-66-41.7c-5.6-16.3-6.5-33.1-5.4-50c0.9-14.2,3.7-28,10.5-40.6c14.8-27.2,38.2-41,68.8-40.9
		c16.1,0,28.5,9.1,37.2,22.7c1.6,2.6,3,2.9,5.7,2.4c15.5-3.1,31.1-6,46.7-9.1c1.3-0.3,2.7-1.3,3.5-2.4c5-6.6,9.4-13.8,14.9-20
		C205.9,15.9,220.4,8.8,237.4,7c16.2-1.7,30.5,7.7,35.3,23.3c0.2,0.6,0.4,1.2,0.6,1.6c5.1-1.4,10.2-3,15.3-4
		c3.5-0.7,7.3-0.4,10.9-0.8c7.8-0.9,15.7-1.9,23.5-3.2c21.1-3.6,42.1-7.5,63.2-11c3.1-0.5,6.4,0.5,9.6,0.5c1.3,0,3-0.1,4-0.8
		c14-10.3,28.6-11.1,43.7-2.9c2.1,1.1,4.1,2.5,6.4,3.3c3.9,1.5,5.2,3.9,5.1,8.2c-0.4,12.3-0.1,24.6-0.1,37
		C454.7,59.3,454.7,60.4,454.7,62z M122.5,66.6c-0.5-1-0.8-1.9-1.3-2.7c-7.9-15-20.2-23.7-37.2-24c-28.8-0.5-56.1,19.6-65.8,47.9
		c-7.9,23-8.2,46.5-2.5,70c6.9,28.2,34.2,50,62.4,45.6c9.1-1.4,18.2-2.4,26-7.9c0.2-0.1,0.5,0,0.8,0c0.1,1.2,0.3,2.3,0.4,3.5
		c10.4-2,20.5-3.9,30.7-5.9c6.4-1.2,12.3-2.6,19.1-0.1c8.1,2.9,15.5-0.9,21.7-6.4c5-4.5,9.9-9.3,14.8-13.9
		c20.3,17.7,50,10.1,66.8-13c20.6,15.9,40,10.4,59.1-3.4c0.1,0.9,0.2,1.9,0.3,2.9c1.1-0.1,1.9-0.2,2.7-0.3
		c23.5-4.3,47-8.6,70.5-12.7c6.9-1.2,14-1.9,21-2.6c3.7-0.4,7.6,0.1,11.2-0.6c19-3.7,33.1-14.5,43.8-30.3
		c10.4-15.3,12.9-33.5,18.9-51.1c-12.5,2.2-24.3,4.3-36.5,6.4c0-1.6,0-2.7,0-3.8c0-12.2-0.5-24.5,0.2-36.6
		c0.4-6.8-1.9-10.1-7.9-13.2c-14.8-7.6-28.2-6.7-40.9,4.1c-1.2,1.1-2.2,1.4-3.9,0.8c-9.6-3.4-18.5-1.6-26.7,4.2
		c-0.7,0.5-1.5,1-2.4,1.6c-0.2-1.4-0.4-2.5-0.6-3.9c-16.6,3-33.1,6-49.7,9c0,2.8,0,5.2,0,8.1c-7.8-4.5-15.6-6.8-24.2-5.9
		c-8.5,0.9-16.4,3.6-23.8,8.2c-0.3-1.7-0.5-3-0.7-4.4c-2.3-14.6-13.5-24.4-28.2-24c-17.1,0.4-31.3,7.8-42.5,20.4
		c-5.2,5.8-9.5,12.4-13.8,18.9c-1.7,2.6-3.2,4.5-6.7,4.3c-1.8-0.1-3.8,0.3-5.5,1c-5.8,2.3-11.6,4.9-17.3,7.3c-0.1-0.7-0.2-2-0.3-3.6
		C143.8,62.4,133.3,64.5,122.5,66.6z"/>
	<path class="st0" d="M191.7,167.1c-5.9,5.6-11.5,11.1-17.3,16.4c-7.2,6.4-15.1,8.6-24.1,3.6c-0.8-0.4-2-0.4-2.9-0.2
		c-11.6,2.2-23.1,4.4-34.7,6.6c-1,0.2-2,0.4-3.4,0.6c0-3.1,0-5.9,0-9.1c-2.6,2.4-4.8,4.7-7.4,6.5c-8.2,5.6-17.5,7.4-27.2,8.1
		c-26.8,1.9-46.8-17.4-53.1-37.3c-8.6-27.2-8.3-54.5,3.7-80.6c11.1-24.1,31.6-35.6,57.4-38c14.1-1.3,33.4,10.8,36.7,27.4
		c10.3-2,20.5-4,31.2-6.1c0,3.2,0,6,0,8.7c0.4,0.3,0.8,0.5,1.2,0.8c0.3-0.7,0.5-1.6,1-2.2c8-8.4,17.7-13.1,29.4-13.2
		c1.8,0,2.5-0.8,3.2-2.2c6.2-11.1,13.1-21.7,23.4-29.4c9.8-7.3,20.7-12.2,33.3-11.6c12.7,0.6,21.5,9.1,22.9,21.9
		c0.4,3.4,0.5,6.8,0.7,10.3c17.7-13.8,36-17.7,55.7-2.7c0-4.2,0-8.1,0-12.2c14.1-2.5,27.8-5,41.9-7.5c0,3.1,0,5.8,0,8.6
		c0.2,0.1,0.5,0.2,0.7,0.4c0.8-0.8,1.6-1.7,2.4-2.5c6.5-7.4,14.4-11.6,24.6-10.4c1.5,0.2,3.2,0.3,4.5,1.1c3.1,1.8,5.2,1,7.8-1.3
		c11.2-9.8,22.5-10.6,35.9-4.1c5,2.5,6.7,5.4,6.5,10.9c-0.5,13.6-0.2,27.1-0.2,40.7c0,1.1,0,2.3,0,3.7c11.6-2,22.9-4,34.6-6.1
		c-1.2,4.2-2.1,7.9-3.4,11.5c-3,8.6-5.3,17.7-9.4,25.8c-8.8,17.6-22.6,29.7-42.1,34.6c-3.3,0.8-6.9,1.4-10.2,1
		c-7.5-0.8-14.7,0.8-22,2.2c-23.4,4.2-46.8,8.5-70.2,12.7c-0.3,0.1-0.6,0-1.3-0.1c0-2.8,0-5.7,0-9.4c-8,11.1-18.2,17.3-30.6,19.7
		c-13.1,2.5-24.1-1.6-32.6-10.8c-5,5.1-9.4,10.6-14.7,15c-9.7,8-21,11.2-33.7,8.9c-5.8-1.1-10.7-4-15.1-7.8
		C193.9,169,192.8,168.1,191.7,167.1z M336.4,68.5c0,22.8,0,45.6,0,68.6c6.5-1.2,12.6-2.3,19-3.5c-1.5-29,4.7-56.1,17.5-81.7
		c0.3,0,0.7,0.1,1,0.1c0,26,0,52,0,78.3c6.5-1.2,12.7-2.3,19.1-3.5c-0.6-14.2,0.7-28.1,3.9-41.7c4.6-19.1,10.8-35.9,14.6-39.2
		c0,1.3,0,2.4,0,3.5c0,21.8,0,43.6,0,65.5c0,1.9,0,3.8,0.4,5.6c0.9,5,2.7,6.1,7.7,5c7.3-1.7,13.9-5.1,19.7-9.8
		c9.8-7.9,16.2-17.9,19.7-29.5c-5.4,0.8-10.7,1.7-16,2.1c-2.4,0.2-3,0.9-3.3,3.2c-0.7,5.1-1.8,10.2-3.1,15.2
		c-0.8,2.8-2.7,5.2-5.8,7.1c0-1.9,0-3.1,0-4.4c0-25.5,0-50.9,0.1-76.4c0-2.9-1-4.1-3.6-4.8c-5-1.3-9.5-0.4-13.7,2.5
		c-4.8,3.3-8.3,7.8-10.2,13.2c-2.6,7-4.8,14.2-6.8,21.4c-1.4,5-2.2,10.2-3.3,15.3C393,67.8,393,55.1,393,42.3c0-6.4-1.8-8.2-8.3-7.6
		c-2.7,0.3-5.5,1.2-7.9,2.6c-4.7,2.6-8.2,6.7-10.1,11.6c-2.9,7.1-5.3,14.4-7.7,21.8c-1.4,4.5-2.2,9.2-3.3,13.8c-0.1,0-0.2,0-0.3-0.1
		c0-7,0-14,0-21c0-7,0-13.9,0-21.3c-6.6,1.2-12.8,2.3-19,3.4c-0.2,2.4-0.4,4.3-0.6,6.3c-1.3,16.6-17.7,29.3-34,26.2
		c-7.2-1.4-12.1-5.8-13-11.8c-0.8-4.8,0.4-8,3.3-8.8c3-0.9,6.1,1.1,7.9,5.6c1.3,3.3,2.1,6.7,3.1,10.1c5.9,0.9,12.7-0.7,16.8-4
		c-3.7-11.6-14.2-19.1-25.7-18.6c-5,0.2-9.1,3.1-10.6,7.4c-3,8.4,1,18.7,8.8,22.9c7,3.7,14.3,4,21.9,2.1
		C323.3,80.6,330.1,75.3,336.4,68.5z M212.8,121.8c1.4-1.6,2.2-2.5,2.9-3.5c6.1-9,12.4-17.8,18.2-27c6.7-10.7,12.1-22.1,15.2-34.5
		c1.5-5.8,2.9-11.6,1.7-17.6c-1.1-5.8-4.6-8.9-10.4-8.7c-2.9,0.1-5.8,0.6-8.6,1.5c-17.8,5.9-28.9,18.9-36.2,35.5
		c-8.9,20.4-9.6,41.7-6,63.3c1.5,9,4.6,17.3,10.8,24.3c9,10.1,21.6,11.9,32.5,3.7c4.4-3.3,8.5-7.6,11.3-12.3
		c10.1-16.9,9.4-34.8,2.8-52.7c-0.9-2.4-2.3-4.5-3.9-7.4c-5.1,8.3-9.8,15.9-14.3,23.6c-0.4,0.6,0.1,1.9,0.5,2.7
		c1.3,3.4,3.6,6.7,3.8,10.1c0.3,6.2-0.5,12.4-1.3,18.6c-0.6,4.9-2.3,9.6-5.8,13.3c-4.3,4.6-9.5,4.2-12.2-1.4
		c-2.1-4.4-3.7-9.3-4.6-14.2c-3.7-20.8-3.4-41.8-0.5-62.6c1.3-9.2,3.3-18.4,8.6-26.2c2.3-3.4,5.5-6.3,8.7-8.8
		c3.1-2.4,5.3-1.3,5.9,2.6c0.4,3,0.6,6.1,0.2,9c-2.5,19.9-8.6,38.7-18.2,56.2C211.8,113.4,212.3,117,212.8,121.8z M141.6,133.9
		c2.3-0.5,4.5-0.9,6.6-1.3c6.6-1.1,8,0.3,8,6.9c-0.1,9.6-0.2,19.2,0.1,28.8c0.1,2.2,1.6,4.4,2.5,6.7c2.1-0.9,4.6-1.3,6.2-2.8
		c7.2-6.5,14.1-13.4,21-20.1c3.8-3.7,3.8-3.8,1.6-8.6c-0.1-0.2-0.3-0.4-0.8-1c-3.8,3.8-7.4,7.5-11.1,11.3c-0.1-0.2-0.1-0.3-0.1-0.4
		c0-8.1,0-16.3-0.1-24.4c0-5-2.6-7.2-7.6-6.7c-1.3,0.2-2.7,0.5-4,0.7c-3.1,0.5-6.2,1.1-9.8,1.7c0.3-1.8,0.4-3,0.7-4.2
		c2.2-11.5,7.2-20.8,19-25.2c0.5-0.2,1.1-0.9,1.2-1.5c1.1-6.4,2.1-12.9,3.1-19.4c0.1,0-0.3-0.1-0.7-0.1c-0.7,0.1-1.4,0.2-2.2,0.4
		c-8.6,2-14.6,7.3-18.8,14.8c-5.7,10.3-7.6,21.5-8.3,33.1c-0.2,2.6-0.7,3.9-3.4,3.9c-0.9,0-1.8,0.2-3,0.4c0-15.2,0-30.1,0-45.3
		c-5.5,1-10.6,2.1-15.7,2.8c-2.8,0.4-3.7,1.4-3.6,4.4c0.4,10.2-0.1,20.4-3.1,30.4c-2.7,8.8-7.2,16.5-13.3,23.1
		c-1.5-3.3-2.5-6.6-4.3-9.5c-4.8-7.6-15.4-7.8-20.9-0.6c-3.4,4.5-3.7,9.6-2.9,14.9c1.5,9.4,10.1,14.1,18.7,10
		c10.6-5.2,17.9-13.8,24-23.6c0.5-0.8,1-1.6,1.9-3c0,8.2,0,15.8,0,23.3c0,7.6,0,15.2,0,23c6-1.1,11.6-2.3,17.2-3.3
		c1.9-0.3,2.3-1.3,2.2-3c-0.1-5.2,0-10.4,0-15.7C141.6,148,141.6,141.1,141.6,133.9z M105.8,158.2c-5.2,2-8.9,4.8-10.4,10.2
		c-0.6,2-2,3.9-3.3,5.7c-6.4,8.9-16.6,9.7-24.4,2c-5.7-5.6-8.5-12.8-10.5-20.3c-4.1-15.1-3.6-30.4-1.6-45.7
		c1.5-11.1,3.6-22,8.9-32.1c2.8-5.3,6.4-9.8,12.1-12.2c8-3.3,12.9-0.3,12.3,8.3c-0.4,7.1-1.8,14.3-3.5,21.2
		c-1.7,7.1-4.3,14-6.4,20.7c3.7-1.2,7.5-2.9,11.4-3.5c4-0.6,8.2-0.1,12.8-0.1c0.8-4.2,1.8-8.5,2.5-12.9c1.3-9.3,1.7-18.5-1.6-27.5
		c-3.3-9.3-10.9-14.5-20.5-13.6c-20,1.8-35.6,10.9-44.2,29.3c-10.5,22.6-12,46.3-4,70.1c4.2,12.4,11.8,22.5,24.1,28.3
		c12.6,5.9,26.6,4,35.1-4.8C100.8,174.8,104.1,167.1,105.8,158.2z M324.1,85.7c-6.7,1.5-12.9,3-19.7,4.5c0,6.1,0.3,12.7-0.1,19.2
		c-0.5,9.3-1.5,18.6-5.6,27.1c-1.3,2.7-3.4,5.3-5.7,7.2c-3.7,2.9-7.8,1.9-10.1-2.2c-1.6-2.9-2.8-6.1-3.5-9.3
		c-3.1-15.6-3-31.3-1.5-47c0.4-3.9,2.3-8.1,1.4-11.6c-1.4-5.5-2.5-10.8-1.6-17.3c-4.8,3.6-7.9,7.5-10.3,12.1
		c-9.3,18.1-11.5,37.4-7.9,57.2c1.8,9.6,6.6,17.8,15.4,22.9c9.3,5.3,21,3.7,30.6-4.2c8.5-7,13.1-16.3,15.8-26.7
		C324.3,107,325.1,96.3,324.1,85.7z"/>
	<path class="st0" d="M84.5,143.6c0.2-5.7,2.1-9,5.8-9.5c3.1-0.5,5.9,2.3,7.4,7.5c1.8,5.8,1.1,8-3.2,10.6c-4.1,2.4-7.9,0.9-9.2-3.7
		C84.9,146.9,84.7,145.2,84.5,143.6z"/>
</g>
</svg>
